<mxfile host="app.diagrams.net" modified="2023-10-19T19:36:42.153Z" agent="Mozilla/5.0 (Windows NT 10.0; Win64; x64) AppleWebKit/537.36 (KHTML, like Gecko) Chrome/118.0.0.0 Safari/537.36" etag="hGc-7razX3JF5JFpGQTD" version="22.0.5" type="device" pages="4">
  <diagram id="HmvC9kez2Muzj7afJFba" name="l">
    <mxGraphModel dx="700" dy="388" grid="1" gridSize="10" guides="1" tooltips="1" connect="1" arrows="1" fold="1" page="1" pageScale="1" pageWidth="827" pageHeight="1169" math="0" shadow="0">
      <root>
        <mxCell id="0" />
        <mxCell id="1" parent="0" />
        <mxCell id="B4gknTY8JxjXSTLJaj7V-9" value="L[i][j] = min (&lt;br style=&quot;font-size: 9px;&quot;&gt;L[i][j - 1] + 1,&lt;br style=&quot;font-size: 9px;&quot;&gt;L[i - 1][j]&amp;nbsp;+ 1,&lt;br style=&quot;font-size: 9px;&quot;&gt;L[i - 1][j - 1] + cost)" style="shape=process;whiteSpace=wrap;html=1;backgroundOutline=1;fontSize=9;" parent="1" vertex="1">
          <mxGeometry x="455" y="515" width="125" height="70" as="geometry" />
        </mxCell>
        <mxCell id="B4gknTY8JxjXSTLJaj7V-10" value="" style="endArrow=none;html=1;entryX=0.5;entryY=1;entryDx=0;entryDy=0;exitX=0.5;exitY=0;exitDx=0;exitDy=0;edgeStyle=orthogonalEdgeStyle;fontSize=9;" parent="1" source="B4gknTY8JxjXSTLJaj7V-11" edge="1">
          <mxGeometry width="50" height="50" relative="1" as="geometry">
            <mxPoint x="505" y="240" as="sourcePoint" />
            <mxPoint x="505" y="110" as="targetPoint" />
          </mxGeometry>
        </mxCell>
        <mxCell id="B4gknTY8JxjXSTLJaj7V-11" value="n = len(A)&lt;br style=&quot;font-size: 9px;&quot;&gt;m = len(B)" style="shape=process;whiteSpace=wrap;html=1;backgroundOutline=1;fontSize=9;" parent="1" vertex="1">
          <mxGeometry x="445" y="120" width="120" height="50" as="geometry" />
        </mxCell>
        <mxCell id="B4gknTY8JxjXSTLJaj7V-12" value="" style="endArrow=none;html=1;entryX=0.5;entryY=1;entryDx=0;entryDy=0;exitX=0.5;exitY=0;exitDx=0;exitDy=0;edgeStyle=orthogonalEdgeStyle;fontSize=9;" parent="1" source="B4gknTY8JxjXSTLJaj7V-27" target="B4gknTY8JxjXSTLJaj7V-11" edge="1">
          <mxGeometry width="50" height="50" relative="1" as="geometry">
            <mxPoint x="505" y="240" as="sourcePoint" />
            <mxPoint x="505" y="170" as="targetPoint" />
          </mxGeometry>
        </mxCell>
        <mxCell id="VLWC48vnm1ez3_X85vS4-2" style="edgeStyle=orthogonalEdgeStyle;rounded=0;orthogonalLoop=1;jettySize=auto;html=1;exitX=0.5;exitY=1;exitDx=0;exitDy=0;exitPerimeter=0;endArrow=none;endFill=0;" parent="1" source="B4gknTY8JxjXSTLJaj7V-26" edge="1">
          <mxGeometry relative="1" as="geometry">
            <mxPoint x="502.5" y="640" as="targetPoint" />
          </mxGeometry>
        </mxCell>
        <mxCell id="B4gknTY8JxjXSTLJaj7V-26" value="&lt;span&gt;Цикл j от 1 до n + 1&lt;/span&gt;" style="strokeWidth=1;html=1;shape=mxgraph.flowchart.loop_limit;whiteSpace=wrap;direction=west;fontSize=9;" parent="1" vertex="1">
          <mxGeometry x="457.5" y="610" width="120" height="50" as="geometry" />
        </mxCell>
        <mxCell id="B4gknTY8JxjXSTLJaj7V-27" value="Создать матрицу L и заполнить её нулевую строку и нулевой столбец" style="rounded=0;whiteSpace=wrap;html=1;fontSize=9;" parent="1" vertex="1">
          <mxGeometry x="445" y="180" width="120" height="50" as="geometry" />
        </mxCell>
        <mxCell id="B4gknTY8JxjXSTLJaj7V-28" value="" style="endArrow=none;html=1;entryX=0.5;entryY=1;entryDx=0;entryDy=0;exitX=0.5;exitY=0;exitDx=0;exitDy=0;edgeStyle=orthogonalEdgeStyle;fontSize=9;" parent="1" source="B4gknTY8JxjXSTLJaj7V-29" target="B4gknTY8JxjXSTLJaj7V-27" edge="1">
          <mxGeometry width="50" height="50" relative="1" as="geometry">
            <mxPoint x="505" y="310" as="sourcePoint" />
            <mxPoint x="505" y="240" as="targetPoint" />
          </mxGeometry>
        </mxCell>
        <mxCell id="B4gknTY8JxjXSTLJaj7V-29" value="Цикл i от 1 до n + 1" style="strokeWidth=1;html=1;shape=mxgraph.flowchart.loop_limit;whiteSpace=wrap;fontSize=9;" parent="1" vertex="1">
          <mxGeometry x="445" y="240" width="120" height="50" as="geometry" />
        </mxCell>
        <mxCell id="B4gknTY8JxjXSTLJaj7V-30" value="" style="endArrow=none;html=1;entryX=0.5;entryY=1;entryDx=0;entryDy=0;exitX=0.5;exitY=0;exitDx=0;exitDy=0;edgeStyle=orthogonalEdgeStyle;fontSize=9;" parent="1" source="B4gknTY8JxjXSTLJaj7V-31" target="B4gknTY8JxjXSTLJaj7V-29" edge="1">
          <mxGeometry width="50" height="50" relative="1" as="geometry">
            <mxPoint x="640" y="300" as="sourcePoint" />
            <mxPoint x="505" y="230" as="targetPoint" />
          </mxGeometry>
        </mxCell>
        <mxCell id="B4gknTY8JxjXSTLJaj7V-31" value="&lt;font style=&quot;font-size: 9px;&quot;&gt;Цикл j от 1 до m + 1&lt;/font&gt;" style="strokeWidth=1;html=1;shape=mxgraph.flowchart.loop_limit;whiteSpace=wrap;fontSize=9;" parent="1" vertex="1">
          <mxGeometry x="445" y="300" width="120" height="50" as="geometry" />
        </mxCell>
        <mxCell id="B4gknTY8JxjXSTLJaj7V-32" value="" style="endArrow=none;html=1;entryX=0.5;entryY=1;entryDx=0;entryDy=0;exitX=0.5;exitY=0;exitDx=0;exitDy=0;edgeStyle=orthogonalEdgeStyle;fontSize=9;" parent="1" target="B4gknTY8JxjXSTLJaj7V-31" edge="1">
          <mxGeometry width="50" height="50" relative="1" as="geometry">
            <mxPoint x="505" y="360" as="sourcePoint" />
            <mxPoint x="505" y="290" as="targetPoint" />
          </mxGeometry>
        </mxCell>
        <mxCell id="B4gknTY8JxjXSTLJaj7V-33" value="&lt;span style=&quot;font-family: Helvetica; font-size: 9px; font-style: normal; font-variant-ligatures: normal; font-variant-caps: normal; font-weight: 400; letter-spacing: normal; orphans: 2; text-align: center; text-indent: 0px; text-transform: none; widows: 2; word-spacing: 0px; -webkit-text-stroke-width: 0px; background-color: rgb(248, 249, 250); text-decoration-style: initial; text-decoration-color: initial; float: none; display: inline !important;&quot;&gt;Цикл i от 1 до m + 1&lt;/span&gt;" style="strokeWidth=1;html=1;shape=mxgraph.flowchart.loop_limit;whiteSpace=wrap;direction=west;fontSize=9;" parent="1" vertex="1">
          <mxGeometry x="457.5" y="670" width="120" height="50" as="geometry" />
        </mxCell>
        <mxCell id="vIORO9gee7J_TG2lZG9X-1" style="edgeStyle=orthogonalEdgeStyle;rounded=0;orthogonalLoop=1;jettySize=auto;html=1;exitX=0;exitY=0.5;exitDx=0;exitDy=0;exitPerimeter=0;entryX=1;entryY=0.5;entryDx=0;entryDy=0;entryPerimeter=0;endArrow=none;endFill=0;dashed=1;" parent="1" source="vIORO9gee7J_TG2lZG9X-2" edge="1">
          <mxGeometry relative="1" as="geometry">
            <mxPoint x="555" y="84.49999999999994" as="targetPoint" />
          </mxGeometry>
        </mxCell>
        <mxCell id="vIORO9gee7J_TG2lZG9X-2" value="" style="strokeWidth=1;html=1;shape=mxgraph.flowchart.annotation_1;align=left;pointerEvents=1;" parent="1" vertex="1">
          <mxGeometry x="600" y="47" width="30" height="75" as="geometry" />
        </mxCell>
        <mxCell id="vIORO9gee7J_TG2lZG9X-3" value="Расстояние Левенштейна" style="text;html=1;align=left;verticalAlign=middle;resizable=0;points=[];autosize=1;strokeColor=none;fillColor=none;fontSize=9;" parent="1" vertex="1">
          <mxGeometry x="610" y="54.5" width="130" height="20" as="geometry" />
        </mxCell>
        <mxCell id="vIORO9gee7J_TG2lZG9X-4" value="Вход: строки A, B&lt;br style=&quot;font-size: 9px;&quot;&gt;&lt;div style=&quot;font-size: 9px;&quot;&gt;&lt;span style=&quot;background-color: initial; font-size: 9px;&quot;&gt;Выход: число - расстояние&amp;nbsp;&lt;/span&gt;&lt;/div&gt;&lt;div style=&quot;font-size: 9px;&quot;&gt;&lt;span style=&quot;background-color: initial; font-size: 9px;&quot;&gt;Левенштейна&lt;/span&gt;&lt;span style=&quot;background-color: initial; white-space: pre; font-size: 9px;&quot;&gt;&#x9;&lt;span style=&quot;white-space: pre; font-size: 9px;&quot;&gt;&#x9;&lt;/span&gt;&lt;/span&gt;&lt;/div&gt;&lt;span style=&quot;white-space: pre; font-size: 9px;&quot;&gt;&lt;/span&gt;" style="text;html=1;align=left;verticalAlign=middle;resizable=0;points=[];autosize=1;strokeColor=none;fillColor=none;fontSize=9;" parent="1" vertex="1">
          <mxGeometry x="610" y="68.5" width="140" height="50" as="geometry" />
        </mxCell>
        <mxCell id="7lJHkftQ-M480xY37a-Z-1" value="Начало" style="strokeWidth=1;html=1;shape=mxgraph.flowchart.terminator;whiteSpace=wrap;fontSize=9;" parent="1" vertex="1">
          <mxGeometry x="455" y="59.5" width="100" height="50" as="geometry" />
        </mxCell>
        <mxCell id="egwpY_TWdaVuhJk6jHNh-2" value="Вернуть L[n][m]" style="rounded=0;whiteSpace=wrap;html=1;fontSize=9;" parent="1" vertex="1">
          <mxGeometry x="452.5" y="730" width="130" height="50" as="geometry" />
        </mxCell>
        <mxCell id="egwpY_TWdaVuhJk6jHNh-3" value="Конец" style="strokeWidth=1;html=1;shape=mxgraph.flowchart.terminator;whiteSpace=wrap;fontSize=9;" parent="1" vertex="1">
          <mxGeometry x="467.5" y="790" width="100" height="50" as="geometry" />
        </mxCell>
        <mxCell id="E-QzyOE1V-qHZ_tjhNX1-23" style="edgeStyle=orthogonalEdgeStyle;rounded=0;orthogonalLoop=1;jettySize=auto;html=1;exitX=0;exitY=0.5;exitDx=0;exitDy=0;entryX=0.5;entryY=0;entryDx=0;entryDy=0;" edge="1" parent="1" source="E-QzyOE1V-qHZ_tjhNX1-15" target="E-QzyOE1V-qHZ_tjhNX1-19">
          <mxGeometry relative="1" as="geometry" />
        </mxCell>
        <mxCell id="E-QzyOE1V-qHZ_tjhNX1-24" style="edgeStyle=orthogonalEdgeStyle;rounded=0;orthogonalLoop=1;jettySize=auto;html=1;exitX=1;exitY=0.5;exitDx=0;exitDy=0;entryX=0.5;entryY=0;entryDx=0;entryDy=0;" edge="1" parent="1" source="E-QzyOE1V-qHZ_tjhNX1-15" target="E-QzyOE1V-qHZ_tjhNX1-17">
          <mxGeometry relative="1" as="geometry" />
        </mxCell>
        <mxCell id="E-QzyOE1V-qHZ_tjhNX1-15" value="&lt;font style=&quot;font-size: 9px;&quot;&gt;A[i - 1] == B[j - 1]&lt;/font&gt;" style="rhombus;whiteSpace=wrap;html=1;" vertex="1" parent="1">
          <mxGeometry x="445" y="360" width="121.25" height="50" as="geometry" />
        </mxCell>
        <mxCell id="E-QzyOE1V-qHZ_tjhNX1-26" style="edgeStyle=orthogonalEdgeStyle;rounded=0;orthogonalLoop=1;jettySize=auto;html=1;exitX=0.5;exitY=1;exitDx=0;exitDy=0;entryX=0.5;entryY=0;entryDx=0;entryDy=0;" edge="1" parent="1" source="E-QzyOE1V-qHZ_tjhNX1-17" target="B4gknTY8JxjXSTLJaj7V-9">
          <mxGeometry relative="1" as="geometry" />
        </mxCell>
        <mxCell id="E-QzyOE1V-qHZ_tjhNX1-17" value="&lt;font style=&quot;font-size: 9px;&quot;&gt;cost = 0&lt;br&gt;&lt;/font&gt;" style="whiteSpace=wrap;html=1;" vertex="1" parent="1">
          <mxGeometry x="565" y="420" width="120" height="40" as="geometry" />
        </mxCell>
        <mxCell id="E-QzyOE1V-qHZ_tjhNX1-25" style="edgeStyle=orthogonalEdgeStyle;rounded=0;orthogonalLoop=1;jettySize=auto;html=1;exitX=0.5;exitY=1;exitDx=0;exitDy=0;entryX=0.5;entryY=0;entryDx=0;entryDy=0;" edge="1" parent="1" source="E-QzyOE1V-qHZ_tjhNX1-19" target="B4gknTY8JxjXSTLJaj7V-9">
          <mxGeometry relative="1" as="geometry" />
        </mxCell>
        <mxCell id="E-QzyOE1V-qHZ_tjhNX1-19" value="&lt;font style=&quot;font-size: 9px;&quot;&gt;cost = 1&lt;/font&gt;" style="whiteSpace=wrap;html=1;" vertex="1" parent="1">
          <mxGeometry x="325" y="420" width="120" height="40" as="geometry" />
        </mxCell>
        <mxCell id="E-QzyOE1V-qHZ_tjhNX1-31" value="" style="endArrow=none;html=1;rounded=0;entryX=0.5;entryY=1;entryDx=0;entryDy=0;exitX=0.5;exitY=0;exitDx=0;exitDy=0;exitPerimeter=0;" edge="1" parent="1" source="egwpY_TWdaVuhJk6jHNh-3" target="egwpY_TWdaVuhJk6jHNh-2">
          <mxGeometry width="50" height="50" relative="1" as="geometry">
            <mxPoint x="482.5" y="780" as="sourcePoint" />
            <mxPoint x="532.5" y="730" as="targetPoint" />
          </mxGeometry>
        </mxCell>
        <mxCell id="E-QzyOE1V-qHZ_tjhNX1-32" value="" style="endArrow=none;html=1;rounded=0;entryX=0.5;entryY=0;entryDx=0;entryDy=0;entryPerimeter=0;exitX=0.5;exitY=1;exitDx=0;exitDy=0;exitPerimeter=0;" edge="1" parent="1" source="B4gknTY8JxjXSTLJaj7V-33" target="B4gknTY8JxjXSTLJaj7V-26">
          <mxGeometry width="50" height="50" relative="1" as="geometry">
            <mxPoint x="482.5" y="780" as="sourcePoint" />
            <mxPoint x="532.5" y="730" as="targetPoint" />
          </mxGeometry>
        </mxCell>
        <mxCell id="E-QzyOE1V-qHZ_tjhNX1-34" value="" style="endArrow=none;html=1;rounded=0;entryX=0.5;entryY=0;entryDx=0;entryDy=0;entryPerimeter=0;exitX=0.5;exitY=0;exitDx=0;exitDy=0;" edge="1" parent="1" source="egwpY_TWdaVuhJk6jHNh-2" target="B4gknTY8JxjXSTLJaj7V-33">
          <mxGeometry width="50" height="50" relative="1" as="geometry">
            <mxPoint x="482.5" y="730" as="sourcePoint" />
            <mxPoint x="532.5" y="680" as="targetPoint" />
          </mxGeometry>
        </mxCell>
        <mxCell id="E-QzyOE1V-qHZ_tjhNX1-37" value="" style="endArrow=none;html=1;rounded=0;entryX=0.5;entryY=1;entryDx=0;entryDy=0;exitX=0.5;exitY=1;exitDx=0;exitDy=0;exitPerimeter=0;" edge="1" parent="1" source="B4gknTY8JxjXSTLJaj7V-26" target="B4gknTY8JxjXSTLJaj7V-9">
          <mxGeometry width="50" height="50" relative="1" as="geometry">
            <mxPoint x="380" y="635" as="sourcePoint" />
            <mxPoint x="430" y="585" as="targetPoint" />
          </mxGeometry>
        </mxCell>
        <mxCell id="E-QzyOE1V-qHZ_tjhNX1-38" value="&lt;font style=&quot;font-size: 9px;&quot;&gt;да&lt;/font&gt;" style="text;html=1;align=center;verticalAlign=middle;resizable=0;points=[];autosize=1;strokeColor=none;fillColor=none;" vertex="1" parent="1">
          <mxGeometry x="577.5" y="360" width="30" height="30" as="geometry" />
        </mxCell>
      </root>
    </mxGraphModel>
  </diagram>
  <diagram id="qGvaZprmm1kTfLuDHt00" name="dl">
    <mxGraphModel dx="819" dy="455" grid="1" gridSize="10" guides="1" tooltips="1" connect="1" arrows="1" fold="1" page="1" pageScale="1" pageWidth="827" pageHeight="1169" math="0" shadow="0">
      <root>
        <mxCell id="0" />
        <mxCell id="1" parent="0" />
        <mxCell id="T_Eui0A0-Z38azGW8Wzg-2" value="" style="edgeStyle=orthogonalEdgeStyle;rounded=0;orthogonalLoop=1;jettySize=auto;html=1;" edge="1" parent="1" source="axuDCd3XwEfQkm1JjnVt-3" target="T_Eui0A0-Z38azGW8Wzg-1">
          <mxGeometry relative="1" as="geometry" />
        </mxCell>
        <mxCell id="T_Eui0A0-Z38azGW8Wzg-4" value="" style="edgeStyle=orthogonalEdgeStyle;rounded=0;orthogonalLoop=1;jettySize=auto;html=1;" edge="1" parent="1" source="axuDCd3XwEfQkm1JjnVt-3" target="T_Eui0A0-Z38azGW8Wzg-3">
          <mxGeometry relative="1" as="geometry" />
        </mxCell>
        <mxCell id="axuDCd3XwEfQkm1JjnVt-3" value="A[i - 1] == B[j - 1]" style="rhombus;whiteSpace=wrap;html=1;fontSize=9;" parent="1" vertex="1">
          <mxGeometry x="495" y="370" width="120" height="50" as="geometry" />
        </mxCell>
        <mxCell id="axuDCd3XwEfQkm1JjnVt-37" style="edgeStyle=orthogonalEdgeStyle;rounded=0;orthogonalLoop=1;jettySize=auto;html=1;exitX=0.5;exitY=1;exitDx=0;exitDy=0;entryX=0.5;entryY=0;entryDx=0;entryDy=0;endArrow=none;endFill=0;" parent="1" source="axuDCd3XwEfQkm1JjnVt-9" target="axuDCd3XwEfQkm1JjnVt-35" edge="1">
          <mxGeometry relative="1" as="geometry" />
        </mxCell>
        <mxCell id="axuDCd3XwEfQkm1JjnVt-9" value="L[i][j] = min (&lt;br style=&quot;font-size: 9px;&quot;&gt;L[i][j - 1] + 1,&lt;br style=&quot;font-size: 9px;&quot;&gt;L[i - 1][j]&amp;nbsp;+ 1,&lt;br style=&quot;font-size: 9px;&quot;&gt;L[i - 1][j - 1] + cost)" style="shape=process;whiteSpace=wrap;html=1;backgroundOutline=1;fontSize=9;" parent="1" vertex="1">
          <mxGeometry x="490" y="520" width="125" height="70" as="geometry" />
        </mxCell>
        <mxCell id="axuDCd3XwEfQkm1JjnVt-10" value="" style="endArrow=none;html=1;entryX=0.5;entryY=1;entryDx=0;entryDy=0;exitX=0.5;exitY=0;exitDx=0;exitDy=0;edgeStyle=orthogonalEdgeStyle;fontSize=9;" parent="1" source="axuDCd3XwEfQkm1JjnVt-11" edge="1">
          <mxGeometry width="50" height="50" relative="1" as="geometry">
            <mxPoint x="555" y="250" as="sourcePoint" />
            <mxPoint x="555" y="120" as="targetPoint" />
          </mxGeometry>
        </mxCell>
        <mxCell id="axuDCd3XwEfQkm1JjnVt-11" value="n = len(A)&lt;br style=&quot;font-size: 9px;&quot;&gt;m = len(B)" style="shape=process;whiteSpace=wrap;html=1;backgroundOutline=1;fontSize=9;" parent="1" vertex="1">
          <mxGeometry x="495" y="130" width="120" height="50" as="geometry" />
        </mxCell>
        <mxCell id="axuDCd3XwEfQkm1JjnVt-12" value="" style="endArrow=none;html=1;entryX=0.5;entryY=1;entryDx=0;entryDy=0;exitX=0.5;exitY=0;exitDx=0;exitDy=0;edgeStyle=orthogonalEdgeStyle;fontSize=9;" parent="1" source="axuDCd3XwEfQkm1JjnVt-27" target="axuDCd3XwEfQkm1JjnVt-11" edge="1">
          <mxGeometry width="50" height="50" relative="1" as="geometry">
            <mxPoint x="555" y="250" as="sourcePoint" />
            <mxPoint x="555" y="180" as="targetPoint" />
          </mxGeometry>
        </mxCell>
        <mxCell id="axuDCd3XwEfQkm1JjnVt-26" value="&lt;span&gt;Цикл j от 1 до m + 1&lt;/span&gt;" style="strokeWidth=1;html=1;shape=mxgraph.flowchart.loop_limit;whiteSpace=wrap;direction=west;fontSize=9;" parent="1" vertex="1">
          <mxGeometry x="495" y="770" width="120" height="50" as="geometry" />
        </mxCell>
        <mxCell id="axuDCd3XwEfQkm1JjnVt-27" value="Создать матрицу L и заполнить её нулевую строку и нулевой столбец" style="rounded=0;whiteSpace=wrap;html=1;fontSize=9;" parent="1" vertex="1">
          <mxGeometry x="495" y="190" width="120" height="50" as="geometry" />
        </mxCell>
        <mxCell id="axuDCd3XwEfQkm1JjnVt-28" value="" style="endArrow=none;html=1;entryX=0.5;entryY=1;entryDx=0;entryDy=0;exitX=0.5;exitY=0;exitDx=0;exitDy=0;edgeStyle=orthogonalEdgeStyle;fontSize=9;" parent="1" source="axuDCd3XwEfQkm1JjnVt-29" target="axuDCd3XwEfQkm1JjnVt-27" edge="1">
          <mxGeometry width="50" height="50" relative="1" as="geometry">
            <mxPoint x="555" y="320" as="sourcePoint" />
            <mxPoint x="555" y="250" as="targetPoint" />
          </mxGeometry>
        </mxCell>
        <mxCell id="axuDCd3XwEfQkm1JjnVt-29" value="Цикл i от 1 до n + 1" style="strokeWidth=1;html=1;shape=mxgraph.flowchart.loop_limit;whiteSpace=wrap;fontSize=9;" parent="1" vertex="1">
          <mxGeometry x="495" y="250" width="120" height="50" as="geometry" />
        </mxCell>
        <mxCell id="axuDCd3XwEfQkm1JjnVt-30" value="" style="endArrow=none;html=1;entryX=0.5;entryY=1;entryDx=0;entryDy=0;exitX=0.5;exitY=0;exitDx=0;exitDy=0;edgeStyle=orthogonalEdgeStyle;fontSize=9;" parent="1" source="axuDCd3XwEfQkm1JjnVt-31" target="axuDCd3XwEfQkm1JjnVt-29" edge="1">
          <mxGeometry width="50" height="50" relative="1" as="geometry">
            <mxPoint x="690" y="310" as="sourcePoint" />
            <mxPoint x="555" y="240" as="targetPoint" />
          </mxGeometry>
        </mxCell>
        <mxCell id="axuDCd3XwEfQkm1JjnVt-31" value="Цикл j от 1 до m + 1" style="strokeWidth=1;html=1;shape=mxgraph.flowchart.loop_limit;whiteSpace=wrap;fontSize=9;" parent="1" vertex="1">
          <mxGeometry x="495" y="310" width="120" height="50" as="geometry" />
        </mxCell>
        <mxCell id="axuDCd3XwEfQkm1JjnVt-32" value="" style="endArrow=none;html=1;entryX=0.5;entryY=1;entryDx=0;entryDy=0;exitX=0.5;exitY=0;exitDx=0;exitDy=0;edgeStyle=orthogonalEdgeStyle;fontSize=9;" parent="1" source="axuDCd3XwEfQkm1JjnVt-3" target="axuDCd3XwEfQkm1JjnVt-31" edge="1">
          <mxGeometry width="50" height="50" relative="1" as="geometry">
            <mxPoint x="555" y="390" as="sourcePoint" />
            <mxPoint x="555" y="300" as="targetPoint" />
          </mxGeometry>
        </mxCell>
        <mxCell id="axuDCd3XwEfQkm1JjnVt-33" value="&lt;span style=&quot;font-family: Helvetica; font-size: 9px; font-style: normal; font-variant-ligatures: normal; font-variant-caps: normal; font-weight: 400; letter-spacing: normal; orphans: 2; text-align: center; text-indent: 0px; text-transform: none; widows: 2; word-spacing: 0px; -webkit-text-stroke-width: 0px; background-color: rgb(248, 249, 250); text-decoration-style: initial; text-decoration-color: initial; float: none; display: inline !important;&quot;&gt;Цикл i от 1 до n + 1&lt;/span&gt;" style="strokeWidth=1;html=1;shape=mxgraph.flowchart.loop_limit;whiteSpace=wrap;direction=west;fontSize=9;" parent="1" vertex="1">
          <mxGeometry x="495" y="830" width="120" height="50" as="geometry" />
        </mxCell>
        <mxCell id="axuDCd3XwEfQkm1JjnVt-34" style="edgeStyle=orthogonalEdgeStyle;rounded=0;orthogonalLoop=1;jettySize=auto;html=1;endArrow=none;endFill=0;fontSize=9;exitX=0.5;exitY=0;exitDx=0;exitDy=0;exitPerimeter=0;entryX=0.5;entryY=0;entryDx=0;entryDy=0;" parent="1" source="axuDCd3XwEfQkm1JjnVt-33" edge="1">
          <mxGeometry relative="1" as="geometry">
            <mxPoint x="490" y="435" as="sourcePoint" />
            <mxPoint x="555" y="890" as="targetPoint" />
          </mxGeometry>
        </mxCell>
        <mxCell id="axuDCd3XwEfQkm1JjnVt-38" style="edgeStyle=orthogonalEdgeStyle;rounded=0;orthogonalLoop=1;jettySize=auto;html=1;exitX=1;exitY=0.5;exitDx=0;exitDy=0;entryX=0.5;entryY=0;entryDx=0;entryDy=0;endArrow=none;endFill=0;" parent="1" source="axuDCd3XwEfQkm1JjnVt-35" target="axuDCd3XwEfQkm1JjnVt-36" edge="1">
          <mxGeometry relative="1" as="geometry" />
        </mxCell>
        <mxCell id="T_Eui0A0-Z38azGW8Wzg-12" style="edgeStyle=orthogonalEdgeStyle;rounded=0;orthogonalLoop=1;jettySize=auto;html=1;" edge="1" parent="1" source="axuDCd3XwEfQkm1JjnVt-35">
          <mxGeometry relative="1" as="geometry">
            <mxPoint x="555" y="770" as="targetPoint" />
          </mxGeometry>
        </mxCell>
        <mxCell id="axuDCd3XwEfQkm1JjnVt-35" value="i&amp;gt;1 и j&amp;gt;1&lt;br style=&quot;font-size: 9px;&quot;&gt;&amp;nbsp;и (A[i - 1] == B[j - 2])&lt;br&gt;и (A[i -2] == B[j - 1])" style="rhombus;whiteSpace=wrap;html=1;fontSize=9;" parent="1" vertex="1">
          <mxGeometry x="480" y="600" width="150" height="80" as="geometry" />
        </mxCell>
        <mxCell id="axuDCd3XwEfQkm1JjnVt-36" value="L[i][j]&amp;nbsp;= min( L[i][j],&lt;br style=&quot;font-size: 9px&quot;&gt;L[i - 2][j - 2]&amp;nbsp;&amp;nbsp;+ 1)" style="rounded=0;whiteSpace=wrap;html=1;fontSize=9;" parent="1" vertex="1">
          <mxGeometry x="630" y="690" width="120" height="50" as="geometry" />
        </mxCell>
        <mxCell id="axuDCd3XwEfQkm1JjnVt-39" value="Да" style="text;html=1;align=center;verticalAlign=middle;resizable=0;points=[];autosize=1;fontSize=9;" parent="1" vertex="1">
          <mxGeometry x="630" y="620" width="30" height="20" as="geometry" />
        </mxCell>
        <mxCell id="k3vOSzQiOhozAB7xEez2-1" value="Начало" style="strokeWidth=1;html=1;shape=mxgraph.flowchart.terminator;whiteSpace=wrap;fontSize=9;" parent="1" vertex="1">
          <mxGeometry x="505" y="70" width="100" height="50" as="geometry" />
        </mxCell>
        <mxCell id="k3vOSzQiOhozAB7xEez2-3" style="edgeStyle=orthogonalEdgeStyle;rounded=0;orthogonalLoop=1;jettySize=auto;html=1;exitX=0;exitY=0.5;exitDx=0;exitDy=0;exitPerimeter=0;entryX=1;entryY=0.5;entryDx=0;entryDy=0;entryPerimeter=0;endArrow=none;endFill=0;dashed=1;" parent="1" source="k3vOSzQiOhozAB7xEez2-2" target="k3vOSzQiOhozAB7xEez2-1" edge="1">
          <mxGeometry relative="1" as="geometry" />
        </mxCell>
        <mxCell id="k3vOSzQiOhozAB7xEez2-2" value="" style="strokeWidth=1;html=1;shape=mxgraph.flowchart.annotation_1;align=left;pointerEvents=1;" parent="1" vertex="1">
          <mxGeometry x="650" y="57.5" width="30" height="75" as="geometry" />
        </mxCell>
        <mxCell id="k3vOSzQiOhozAB7xEez2-4" value="Расстояние Дамерау-Левенштейна" style="text;html=1;align=left;verticalAlign=middle;resizable=0;points=[];autosize=1;strokeColor=none;fillColor=none;fontSize=9;" parent="1" vertex="1">
          <mxGeometry x="660" y="64" width="170" height="20" as="geometry" />
        </mxCell>
        <mxCell id="k3vOSzQiOhozAB7xEez2-7" value="Вход: строки A, B&lt;br style=&quot;font-size: 9px;&quot;&gt;&lt;div style=&quot;font-size: 9px;&quot;&gt;&lt;span style=&quot;background-color: initial; font-size: 9px;&quot;&gt;Выход: число - расстояние&amp;nbsp;&lt;/span&gt;&lt;/div&gt;&lt;div style=&quot;font-size: 9px;&quot;&gt;&lt;span style=&quot;background-color: initial; font-size: 9px;&quot;&gt;Дамерау-Левенштейна&lt;/span&gt;&lt;span style=&quot;background-color: initial; white-space: pre; font-size: 9px;&quot;&gt;&#x9;&lt;span style=&quot;white-space: pre; font-size: 9px;&quot;&gt;&#x9;&lt;/span&gt;&lt;/span&gt;&lt;/div&gt;&lt;span style=&quot;white-space: pre; font-size: 9px;&quot;&gt;&lt;/span&gt;" style="text;html=1;align=left;verticalAlign=middle;resizable=0;points=[];autosize=1;strokeColor=none;fillColor=none;fontSize=9;" parent="1" vertex="1">
          <mxGeometry x="660" y="79" width="140" height="50" as="geometry" />
        </mxCell>
        <mxCell id="k3vOSzQiOhozAB7xEez2-10" style="edgeStyle=orthogonalEdgeStyle;rounded=0;orthogonalLoop=1;jettySize=auto;html=1;exitX=0.5;exitY=1;exitDx=0;exitDy=0;entryX=0.5;entryY=0;entryDx=0;entryDy=0;entryPerimeter=0;fontSize=10;endArrow=none;endFill=0;" parent="1" source="k3vOSzQiOhozAB7xEez2-8" target="k3vOSzQiOhozAB7xEez2-9" edge="1">
          <mxGeometry relative="1" as="geometry" />
        </mxCell>
        <mxCell id="k3vOSzQiOhozAB7xEez2-8" value="Вернуть L[n][m]" style="rounded=0;whiteSpace=wrap;html=1;fontSize=9;" parent="1" vertex="1">
          <mxGeometry x="490" y="890" width="130" height="50" as="geometry" />
        </mxCell>
        <mxCell id="k3vOSzQiOhozAB7xEez2-9" value="Конец" style="strokeWidth=1;html=1;shape=mxgraph.flowchart.terminator;whiteSpace=wrap;fontSize=9;" parent="1" vertex="1">
          <mxGeometry x="505" y="950" width="100" height="50" as="geometry" />
        </mxCell>
        <mxCell id="T_Eui0A0-Z38azGW8Wzg-6" style="edgeStyle=orthogonalEdgeStyle;rounded=0;orthogonalLoop=1;jettySize=auto;html=1;exitX=0.5;exitY=1;exitDx=0;exitDy=0;entryX=0.5;entryY=0;entryDx=0;entryDy=0;" edge="1" parent="1" source="T_Eui0A0-Z38azGW8Wzg-1" target="axuDCd3XwEfQkm1JjnVt-9">
          <mxGeometry relative="1" as="geometry" />
        </mxCell>
        <mxCell id="T_Eui0A0-Z38azGW8Wzg-1" value="cost = 0" style="whiteSpace=wrap;html=1;fontSize=9;" vertex="1" parent="1">
          <mxGeometry x="640" y="430" width="120" height="30" as="geometry" />
        </mxCell>
        <mxCell id="T_Eui0A0-Z38azGW8Wzg-5" style="edgeStyle=orthogonalEdgeStyle;rounded=0;orthogonalLoop=1;jettySize=auto;html=1;exitX=0.5;exitY=1;exitDx=0;exitDy=0;entryX=0.5;entryY=0;entryDx=0;entryDy=0;" edge="1" parent="1" source="T_Eui0A0-Z38azGW8Wzg-3" target="axuDCd3XwEfQkm1JjnVt-9">
          <mxGeometry relative="1" as="geometry" />
        </mxCell>
        <mxCell id="T_Eui0A0-Z38azGW8Wzg-3" value="cost = 1" style="whiteSpace=wrap;html=1;fontSize=9;" vertex="1" parent="1">
          <mxGeometry x="354" y="430" width="120" height="30" as="geometry" />
        </mxCell>
        <mxCell id="GJrmZ7gG9O8g4dvsfXPg-1" style="edgeStyle=orthogonalEdgeStyle;rounded=0;orthogonalLoop=1;jettySize=auto;html=1;exitX=0.5;exitY=1;exitDx=0;exitDy=0;entryX=0.5;entryY=1;entryDx=0;entryDy=0;entryPerimeter=0;" edge="1" parent="1" source="axuDCd3XwEfQkm1JjnVt-36" target="axuDCd3XwEfQkm1JjnVt-26">
          <mxGeometry relative="1" as="geometry">
            <Array as="points">
              <mxPoint x="690" y="750" />
              <mxPoint x="555" y="750" />
            </Array>
          </mxGeometry>
        </mxCell>
      </root>
    </mxGraphModel>
  </diagram>
  <diagram id="t1NBO451yNGgJIE-6PpV" name="rdl">
    <mxGraphModel dx="667" dy="370" grid="1" gridSize="10" guides="1" tooltips="1" connect="1" arrows="1" fold="1" page="1" pageScale="1" pageWidth="827" pageHeight="1169" math="0" shadow="0">
      <root>
        <mxCell id="0" />
        <mxCell id="1" parent="0" />
        <mxCell id="39MM2Udb6IKGW5tiUDVr-2" style="edgeStyle=orthogonalEdgeStyle;rounded=0;orthogonalLoop=1;jettySize=auto;html=1;entryX=0.5;entryY=0;entryDx=0;entryDy=0;endArrow=none;endFill=0;fontSize=9;" parent="1" source="39MM2Udb6IKGW5tiUDVr-3" target="a4DzalSCt0P6aXmDJAcs-6" edge="1">
          <mxGeometry relative="1" as="geometry">
            <mxPoint x="420" y="420" as="targetPoint" />
          </mxGeometry>
        </mxCell>
        <mxCell id="39MM2Udb6IKGW5tiUDVr-3" value="n == 0 or m == 0" style="rhombus;whiteSpace=wrap;html=1;fontSize=9;" parent="1" vertex="1">
          <mxGeometry x="495" y="370" width="120" height="50" as="geometry" />
        </mxCell>
        <mxCell id="CTwllbSoBY83-1CjE7Yf-3" style="edgeStyle=orthogonalEdgeStyle;rounded=0;orthogonalLoop=1;jettySize=auto;html=1;exitX=0.5;exitY=1;exitDx=0;exitDy=0;entryX=0.5;entryY=0;entryDx=0;entryDy=0;" edge="1" parent="1" target="Y23ZMPYrUIuAniNVQfEC-2">
          <mxGeometry relative="1" as="geometry">
            <mxPoint x="410.65999999999997" y="755.5" as="targetPoint" />
            <mxPoint x="699.3299999999999" y="470" as="sourcePoint" />
            <Array as="points">
              <mxPoint x="690" y="471" />
              <mxPoint x="690" y="720" />
              <mxPoint x="407" y="720" />
            </Array>
          </mxGeometry>
        </mxCell>
        <mxCell id="39MM2Udb6IKGW5tiUDVr-6" value="result = |n - m|" style="rounded=0;whiteSpace=wrap;html=1;fontSize=9;" parent="1" vertex="1">
          <mxGeometry x="630" y="430" width="120" height="50" as="geometry" />
        </mxCell>
        <mxCell id="39MM2Udb6IKGW5tiUDVr-13" value="" style="endArrow=none;html=1;entryX=0.5;entryY=1;entryDx=0;entryDy=0;exitX=0.5;exitY=0;exitDx=0;exitDy=0;edgeStyle=orthogonalEdgeStyle;fontSize=9;" parent="1" source="39MM2Udb6IKGW5tiUDVr-14" edge="1">
          <mxGeometry width="50" height="50" relative="1" as="geometry">
            <mxPoint x="555" y="360" as="sourcePoint" />
            <mxPoint x="555" y="230" as="targetPoint" />
          </mxGeometry>
        </mxCell>
        <mxCell id="39MM2Udb6IKGW5tiUDVr-14" value="n = len(A)&lt;br style=&quot;font-size: 9px;&quot;&gt;m = len(B)" style="shape=process;whiteSpace=wrap;html=1;backgroundOutline=1;fontSize=9;" parent="1" vertex="1">
          <mxGeometry x="495" y="240" width="120" height="50" as="geometry" />
        </mxCell>
        <mxCell id="39MM2Udb6IKGW5tiUDVr-15" value="" style="endArrow=none;html=1;entryX=0.5;entryY=1;entryDx=0;entryDy=0;exitX=0.5;exitY=0;exitDx=0;exitDy=0;edgeStyle=orthogonalEdgeStyle;fontSize=9;" parent="1" source="39MM2Udb6IKGW5tiUDVr-28" target="39MM2Udb6IKGW5tiUDVr-14" edge="1">
          <mxGeometry width="50" height="50" relative="1" as="geometry">
            <mxPoint x="555" y="360" as="sourcePoint" />
            <mxPoint x="555" y="290" as="targetPoint" />
          </mxGeometry>
        </mxCell>
        <mxCell id="39MM2Udb6IKGW5tiUDVr-19" style="edgeStyle=orthogonalEdgeStyle;rounded=0;orthogonalLoop=1;jettySize=auto;html=1;entryX=0.5;entryY=0;entryDx=0;entryDy=0;endArrow=none;endFill=0;exitX=1;exitY=0.5;exitDx=0;exitDy=0;fontSize=9;" parent="1" source="39MM2Udb6IKGW5tiUDVr-3" target="39MM2Udb6IKGW5tiUDVr-6" edge="1">
          <mxGeometry relative="1" as="geometry">
            <mxPoint x="525" y="425" as="sourcePoint" />
            <mxPoint x="450" y="450" as="targetPoint" />
          </mxGeometry>
        </mxCell>
        <mxCell id="39MM2Udb6IKGW5tiUDVr-23" value="Да" style="text;html=1;align=center;verticalAlign=middle;resizable=0;points=[];autosize=1;fontSize=9;" parent="1" vertex="1">
          <mxGeometry x="615" y="380" width="30" height="20" as="geometry" />
        </mxCell>
        <mxCell id="39MM2Udb6IKGW5tiUDVr-28" value="result = 0" style="rounded=0;whiteSpace=wrap;html=1;fontSize=9;" parent="1" vertex="1">
          <mxGeometry x="495" y="300" width="120" height="50" as="geometry" />
        </mxCell>
        <mxCell id="39MM2Udb6IKGW5tiUDVr-29" value="" style="endArrow=none;html=1;entryX=0.5;entryY=1;entryDx=0;entryDy=0;exitX=0.5;exitY=0;exitDx=0;exitDy=0;edgeStyle=orthogonalEdgeStyle;fontSize=9;" parent="1" target="39MM2Udb6IKGW5tiUDVr-28" edge="1">
          <mxGeometry width="50" height="50" relative="1" as="geometry">
            <mxPoint x="555" y="360" as="sourcePoint" />
            <mxPoint x="555" y="360" as="targetPoint" />
          </mxGeometry>
        </mxCell>
        <mxCell id="39MM2Udb6IKGW5tiUDVr-33" value="" style="endArrow=none;html=1;entryX=0.5;entryY=1;entryDx=0;entryDy=0;exitX=0.5;exitY=0;exitDx=0;exitDy=0;edgeStyle=orthogonalEdgeStyle;fontSize=9;" parent="1" source="39MM2Udb6IKGW5tiUDVr-3" edge="1">
          <mxGeometry width="50" height="50" relative="1" as="geometry">
            <mxPoint x="555" y="390" as="sourcePoint" />
            <mxPoint x="555" y="360" as="targetPoint" />
          </mxGeometry>
        </mxCell>
        <mxCell id="en8CqoosSR_3C9DMPNpk-1" style="edgeStyle=orthogonalEdgeStyle;rounded=0;orthogonalLoop=1;jettySize=auto;html=1;exitX=0;exitY=0.5;exitDx=0;exitDy=0;exitPerimeter=0;entryX=1;entryY=0.5;entryDx=0;entryDy=0;entryPerimeter=0;endArrow=none;endFill=0;dashed=1;" parent="1" source="en8CqoosSR_3C9DMPNpk-2" edge="1">
          <mxGeometry relative="1" as="geometry">
            <mxPoint x="605" y="205" as="targetPoint" />
          </mxGeometry>
        </mxCell>
        <mxCell id="en8CqoosSR_3C9DMPNpk-2" value="" style="strokeWidth=1;html=1;shape=mxgraph.flowchart.annotation_1;align=left;pointerEvents=1;" parent="1" vertex="1">
          <mxGeometry x="650" y="167.5" width="30" height="75" as="geometry" />
        </mxCell>
        <mxCell id="en8CqoosSR_3C9DMPNpk-3" value="Расстояние Дамерау-Левенштейна&lt;br style=&quot;font-size: 9px;&quot;&gt;(рекурсивная реализация)" style="text;html=1;align=left;verticalAlign=middle;resizable=0;points=[];autosize=1;strokeColor=none;fillColor=none;fontSize=9;" parent="1" vertex="1">
          <mxGeometry x="660" y="166" width="170" height="40" as="geometry" />
        </mxCell>
        <mxCell id="en8CqoosSR_3C9DMPNpk-4" value="Вход: строки A, B&lt;br style=&quot;font-size: 9px;&quot;&gt;&lt;div style=&quot;font-size: 9px;&quot;&gt;&lt;span style=&quot;background-color: initial; font-size: 9px;&quot;&gt;Выход: число - расстояние&amp;nbsp;&lt;/span&gt;&lt;/div&gt;&lt;div style=&quot;font-size: 9px;&quot;&gt;&lt;span style=&quot;background-color: initial; font-size: 9px;&quot;&gt;Дамерау-Левенштейна&lt;/span&gt;&lt;span style=&quot;background-color: initial; white-space: pre; font-size: 9px;&quot;&gt;&#x9;&lt;span style=&quot;white-space: pre; font-size: 9px;&quot;&gt;&#x9;&lt;/span&gt;&lt;/span&gt;&lt;/div&gt;&lt;span style=&quot;white-space: pre; font-size: 9px;&quot;&gt;&lt;/span&gt;" style="text;html=1;align=left;verticalAlign=middle;resizable=0;points=[];autosize=1;strokeColor=none;fillColor=none;fontSize=9;" parent="1" vertex="1">
          <mxGeometry x="660" y="190" width="140" height="50" as="geometry" />
        </mxCell>
        <mxCell id="bfyGI31nHNjp77PYmZ1G-1" value="Начало" style="strokeWidth=1;html=1;shape=mxgraph.flowchart.terminator;whiteSpace=wrap;fontSize=9;" parent="1" vertex="1">
          <mxGeometry x="505" y="180" width="100" height="50" as="geometry" />
        </mxCell>
        <mxCell id="Y23ZMPYrUIuAniNVQfEC-2" value="Вернуть result" style="rounded=0;whiteSpace=wrap;html=1;fontSize=9;" parent="1" vertex="1">
          <mxGeometry x="342" y="760" width="130" height="50" as="geometry" />
        </mxCell>
        <mxCell id="Y23ZMPYrUIuAniNVQfEC-3" value="Конец" style="strokeWidth=1;html=1;shape=mxgraph.flowchart.terminator;whiteSpace=wrap;fontSize=9;" parent="1" vertex="1">
          <mxGeometry x="357" y="854.5" width="100" height="50" as="geometry" />
        </mxCell>
        <mxCell id="a4DzalSCt0P6aXmDJAcs-3" value="" style="edgeStyle=orthogonalEdgeStyle;rounded=0;orthogonalLoop=1;jettySize=auto;html=1;entryX=0.5;entryY=0;entryDx=0;entryDy=0;" edge="1" parent="1" source="6E3B9Q012xw2N2Kgi0P_-17" target="a4DzalSCt0P6aXmDJAcs-4">
          <mxGeometry relative="1" as="geometry">
            <mxPoint x="552.5" y="631" as="targetPoint" />
          </mxGeometry>
        </mxCell>
        <mxCell id="nRhCtUnTH1gKGg9oDuSS-1" style="edgeStyle=orthogonalEdgeStyle;rounded=0;orthogonalLoop=1;jettySize=auto;html=1;entryX=0.5;entryY=0;entryDx=0;entryDy=0;" edge="1" parent="1" source="6E3B9Q012xw2N2Kgi0P_-17" target="Y23ZMPYrUIuAniNVQfEC-2">
          <mxGeometry relative="1" as="geometry" />
        </mxCell>
        <mxCell id="6E3B9Q012xw2N2Kgi0P_-17" value="&lt;font style=&quot;font-size: 9px;&quot;&gt;n &amp;gt; 1 и m &amp;gt; 1&lt;br&gt;и A[-1] == B[-2]&lt;br&gt;и A[-2] == B[-1]&lt;/font&gt;" style="rhombus;whiteSpace=wrap;html=1;" vertex="1" parent="1">
          <mxGeometry x="336" y="520" width="143" height="80" as="geometry" />
        </mxCell>
        <mxCell id="CTwllbSoBY83-1CjE7Yf-1" style="edgeStyle=orthogonalEdgeStyle;rounded=0;orthogonalLoop=1;jettySize=auto;html=1;" edge="1" parent="1" source="a4DzalSCt0P6aXmDJAcs-4" target="Y23ZMPYrUIuAniNVQfEC-2">
          <mxGeometry relative="1" as="geometry" />
        </mxCell>
        <mxCell id="a4DzalSCt0P6aXmDJAcs-4" value="&lt;font style=&quot;font-size: 9px;&quot;&gt;result = min(result,&lt;br&gt;&lt;span style=&quot;white-space: pre;&quot;&gt;&#x9;&lt;/span&gt;DL(A[:-2], B[:-2]) + 1&lt;/font&gt;" style="whiteSpace=wrap;html=1;" vertex="1" parent="1">
          <mxGeometry x="485" y="634.5" width="130" height="60" as="geometry" />
        </mxCell>
        <mxCell id="oXjZXH1-WcGpmS629W31-6" style="edgeStyle=orthogonalEdgeStyle;rounded=0;orthogonalLoop=1;jettySize=auto;html=1;entryX=0.5;entryY=0;entryDx=0;entryDy=0;" edge="1" parent="1" source="a4DzalSCt0P6aXmDJAcs-6" target="6E3B9Q012xw2N2Kgi0P_-17">
          <mxGeometry relative="1" as="geometry" />
        </mxCell>
        <mxCell id="a4DzalSCt0P6aXmDJAcs-6" value="&lt;font style=&quot;font-size: 9px;&quot;&gt;result = min(DL(A[:-1], B) + 1, &lt;span style=&quot;white-space: pre;&quot;&gt;&#x9;&lt;span style=&quot;white-space: pre;&quot;&gt;&#x9;&lt;/span&gt; &amp;nbsp;&lt;/span&gt;&amp;nbsp; DL(A, B[:-1]) + 1,&lt;br&gt;DL(A[:-1], B[:-1]) + (A[-1] != B[-1])&lt;/font&gt;" style="whiteSpace=wrap;html=1;" vertex="1" parent="1">
          <mxGeometry x="336" y="430" width="144" height="60" as="geometry" />
        </mxCell>
        <mxCell id="a4DzalSCt0P6aXmDJAcs-22" style="edgeStyle=orthogonalEdgeStyle;rounded=0;orthogonalLoop=1;jettySize=auto;html=1;entryX=0.5;entryY=0;entryDx=0;entryDy=0;entryPerimeter=0;" edge="1" parent="1" source="Y23ZMPYrUIuAniNVQfEC-2" target="Y23ZMPYrUIuAniNVQfEC-3">
          <mxGeometry relative="1" as="geometry" />
        </mxCell>
        <mxCell id="oXjZXH1-WcGpmS629W31-7" value="&lt;font style=&quot;font-size: 9px;&quot;&gt;да&lt;/font&gt;" style="text;html=1;align=center;verticalAlign=middle;resizable=0;points=[];autosize=1;strokeColor=none;fillColor=none;" vertex="1" parent="1">
          <mxGeometry x="482.5" y="534.5" width="30" height="30" as="geometry" />
        </mxCell>
      </root>
    </mxGraphModel>
  </diagram>
  <diagram id="Y_h1BJeJTVXnYZBeoPMc" name="rdl_cache">
    <mxGraphModel dx="276" dy="1322" grid="1" gridSize="10" guides="1" tooltips="1" connect="1" arrows="1" fold="1" page="1" pageScale="1" pageWidth="827" pageHeight="1169" math="0" shadow="0">
      <root>
        <mxCell id="0" />
        <mxCell id="1" parent="0" />
        <mxCell id="h1pXGD2eqj7-pvcfMHxu-2" style="edgeStyle=orthogonalEdgeStyle;rounded=0;orthogonalLoop=1;jettySize=auto;html=1;exitX=0.5;exitY=1;exitDx=0;exitDy=0;entryX=0.5;entryY=0;entryDx=0;entryDy=0;fontSize=9;endArrow=none;endFill=0;" parent="1" source="SlYRqpWBmHZHuvhh74nE-13" target="STW5Z5jAcxsszFFZeDyo-1" edge="1">
          <mxGeometry relative="1" as="geometry" />
        </mxCell>
        <mxCell id="SlYRqpWBmHZHuvhh74nE-13" value="n = len(A)&lt;br style=&quot;font-size: 9px;&quot;&gt;m = len(B)" style="shape=process;whiteSpace=wrap;html=1;backgroundOutline=1;fontSize=9;" parent="1" vertex="1">
          <mxGeometry x="385" y="40" width="120" height="50" as="geometry" />
        </mxCell>
        <mxCell id="YmalHwQpCIWpOtn6IM8a-29" style="edgeStyle=orthogonalEdgeStyle;rounded=0;orthogonalLoop=1;jettySize=auto;html=1;exitX=0.5;exitY=0;exitDx=0;exitDy=0;endArrow=none;endFill=0;" parent="1" edge="1">
          <mxGeometry relative="1" as="geometry">
            <mxPoint x="445" y="850.0000000000002" as="targetPoint" />
            <mxPoint x="445" y="890" as="sourcePoint" />
          </mxGeometry>
        </mxCell>
        <mxCell id="YmalHwQpCIWpOtn6IM8a-5" style="edgeStyle=orthogonalEdgeStyle;rounded=0;orthogonalLoop=1;jettySize=auto;html=1;exitX=1;exitY=0.5;exitDx=0;exitDy=0;entryX=0.5;entryY=0;entryDx=0;entryDy=0;endArrow=none;endFill=0;" parent="1" source="SlYRqpWBmHZHuvhh74nE-39" target="SlYRqpWBmHZHuvhh74nE-42" edge="1">
          <mxGeometry relative="1" as="geometry" />
        </mxCell>
        <mxCell id="YmalHwQpCIWpOtn6IM8a-6" style="edgeStyle=orthogonalEdgeStyle;rounded=0;orthogonalLoop=1;jettySize=auto;html=1;exitX=0;exitY=0.5;exitDx=0;exitDy=0;entryX=0.5;entryY=0;entryDx=0;entryDy=0;endArrow=none;endFill=0;" parent="1" source="SlYRqpWBmHZHuvhh74nE-39" target="SlYRqpWBmHZHuvhh74nE-44" edge="1">
          <mxGeometry relative="1" as="geometry" />
        </mxCell>
        <mxCell id="SlYRqpWBmHZHuvhh74nE-39" value="n == 0 or m == 0 ?" style="rhombus;whiteSpace=wrap;html=1;fontSize=9;" parent="1" vertex="1">
          <mxGeometry x="385" y="230" width="120" height="50" as="geometry" />
        </mxCell>
        <mxCell id="YmalHwQpCIWpOtn6IM8a-4" style="edgeStyle=orthogonalEdgeStyle;rounded=0;orthogonalLoop=1;jettySize=auto;html=1;exitX=0.5;exitY=1;exitDx=0;exitDy=0;entryX=0.5;entryY=0;entryDx=0;entryDy=0;endArrow=none;endFill=0;" parent="1" source="SlYRqpWBmHZHuvhh74nE-40" target="SlYRqpWBmHZHuvhh74nE-39" edge="1">
          <mxGeometry relative="1" as="geometry" />
        </mxCell>
        <mxCell id="SlYRqpWBmHZHuvhh74nE-40" value="result = 0" style="rounded=0;whiteSpace=wrap;html=1;fontSize=9;" parent="1" vertex="1">
          <mxGeometry x="385" y="160" width="120" height="50" as="geometry" />
        </mxCell>
        <mxCell id="57JrRMyZgXDPEKOlpHH4-18" style="edgeStyle=orthogonalEdgeStyle;rounded=0;orthogonalLoop=1;jettySize=auto;html=1;entryX=0.5;entryY=0;entryDx=0;entryDy=0;" edge="1" parent="1" source="SlYRqpWBmHZHuvhh74nE-42" target="rgwxBBSbBvLUQFTYEhjc-2">
          <mxGeometry relative="1" as="geometry">
            <Array as="points">
              <mxPoint x="600" y="820" />
              <mxPoint x="445" y="820" />
            </Array>
          </mxGeometry>
        </mxCell>
        <mxCell id="SlYRqpWBmHZHuvhh74nE-42" value="result = |n - m|" style="rounded=0;whiteSpace=wrap;html=1;fontSize=9;" parent="1" vertex="1">
          <mxGeometry x="535" y="280" width="120" height="40" as="geometry" />
        </mxCell>
        <mxCell id="SlYRqpWBmHZHuvhh74nE-43" value="Да" style="text;html=1;align=center;verticalAlign=middle;resizable=0;points=[];autosize=1;fontSize=9;" parent="1" vertex="1">
          <mxGeometry x="550" y="230" width="30" height="20" as="geometry" />
        </mxCell>
        <mxCell id="0f7aI_639BJnZHgS0nen-4" value="" style="edgeStyle=orthogonalEdgeStyle;rounded=0;orthogonalLoop=1;jettySize=auto;html=1;" edge="1" parent="1" source="SlYRqpWBmHZHuvhh74nE-44" target="0f7aI_639BJnZHgS0nen-3">
          <mxGeometry relative="1" as="geometry" />
        </mxCell>
        <mxCell id="57JrRMyZgXDPEKOlpHH4-17" style="edgeStyle=orthogonalEdgeStyle;rounded=0;orthogonalLoop=1;jettySize=auto;html=1;exitX=1;exitY=0.5;exitDx=0;exitDy=0;entryX=0.5;entryY=0;entryDx=0;entryDy=0;" edge="1" parent="1" source="SlYRqpWBmHZHuvhh74nE-44" target="57JrRMyZgXDPEKOlpHH4-13">
          <mxGeometry relative="1" as="geometry" />
        </mxCell>
        <mxCell id="SlYRqpWBmHZHuvhh74nE-44" value="L[n][m] != -1" style="rhombus;whiteSpace=wrap;html=1;fontSize=9;" parent="1" vertex="1">
          <mxGeometry x="240" y="280" width="120" height="50" as="geometry" />
        </mxCell>
        <mxCell id="YmalHwQpCIWpOtn6IM8a-8" value="Да" style="text;html=1;align=center;verticalAlign=middle;resizable=0;points=[];autosize=1;fontSize=9;" parent="1" vertex="1">
          <mxGeometry x="365" y="290" width="30" height="20" as="geometry" />
        </mxCell>
        <mxCell id="dfJOQPLXjNb0cIP_Qnqm-1" style="edgeStyle=orthogonalEdgeStyle;rounded=0;orthogonalLoop=1;jettySize=auto;html=1;exitX=0;exitY=0.5;exitDx=0;exitDy=0;exitPerimeter=0;entryX=1;entryY=0.5;entryDx=0;entryDy=0;entryPerimeter=0;endArrow=none;endFill=0;dashed=1;" parent="1" source="dfJOQPLXjNb0cIP_Qnqm-2" edge="1">
          <mxGeometry relative="1" as="geometry">
            <mxPoint x="495" y="5.75" as="targetPoint" />
          </mxGeometry>
        </mxCell>
        <mxCell id="dfJOQPLXjNb0cIP_Qnqm-2" value="" style="strokeWidth=1;html=1;shape=mxgraph.flowchart.annotation_1;align=left;pointerEvents=1;" parent="1" vertex="1">
          <mxGeometry x="540" y="-31.75" width="30" height="75" as="geometry" />
        </mxCell>
        <mxCell id="dfJOQPLXjNb0cIP_Qnqm-3" value="Расстояние Дамерау-Левенштейна&lt;br style=&quot;font-size: 9px;&quot;&gt;(рекурсивная реализация с кешем)" style="text;html=1;align=left;verticalAlign=middle;resizable=0;points=[];autosize=1;strokeColor=none;fillColor=none;fontSize=9;" parent="1" vertex="1">
          <mxGeometry x="550" y="-33.25" width="170" height="40" as="geometry" />
        </mxCell>
        <mxCell id="dfJOQPLXjNb0cIP_Qnqm-4" value="Вход: строки A, B&lt;br style=&quot;font-size: 9px;&quot;&gt;&lt;div style=&quot;font-size: 9px;&quot;&gt;&lt;span style=&quot;background-color: initial; font-size: 9px;&quot;&gt;Выход: число - расстояние&amp;nbsp;&lt;/span&gt;&lt;/div&gt;&lt;div style=&quot;font-size: 9px;&quot;&gt;&lt;span style=&quot;background-color: initial; font-size: 9px;&quot;&gt;Дамерау - Левенштейна&lt;/span&gt;&lt;span style=&quot;background-color: initial; white-space: pre; font-size: 9px;&quot;&gt;&#x9;&lt;span style=&quot;white-space: pre; font-size: 9px;&quot;&gt;&#x9;&lt;/span&gt;&lt;/span&gt;&lt;/div&gt;&lt;span style=&quot;white-space: pre; font-size: 9px;&quot;&gt;&lt;/span&gt;" style="text;html=1;align=left;verticalAlign=middle;resizable=0;points=[];autosize=1;strokeColor=none;fillColor=none;fontSize=9;" parent="1" vertex="1">
          <mxGeometry x="550" y="-8.25" width="160" height="50" as="geometry" />
        </mxCell>
        <mxCell id="rgwxBBSbBvLUQFTYEhjc-1" style="edgeStyle=orthogonalEdgeStyle;rounded=0;orthogonalLoop=1;jettySize=auto;html=1;exitX=0.5;exitY=1;exitDx=0;exitDy=0;entryX=0.5;entryY=0;entryDx=0;entryDy=0;entryPerimeter=0;fontSize=10;endArrow=none;endFill=0;" parent="1" source="rgwxBBSbBvLUQFTYEhjc-2" target="rgwxBBSbBvLUQFTYEhjc-3" edge="1">
          <mxGeometry relative="1" as="geometry" />
        </mxCell>
        <mxCell id="rgwxBBSbBvLUQFTYEhjc-2" value="Вернуть result" style="rounded=0;whiteSpace=wrap;html=1;fontSize=9;" parent="1" vertex="1">
          <mxGeometry x="380" y="890" width="130" height="50" as="geometry" />
        </mxCell>
        <mxCell id="rgwxBBSbBvLUQFTYEhjc-3" value="Конец" style="strokeWidth=1;html=1;shape=mxgraph.flowchart.terminator;whiteSpace=wrap;fontSize=9;" parent="1" vertex="1">
          <mxGeometry x="395" y="950" width="100" height="50" as="geometry" />
        </mxCell>
        <mxCell id="h1pXGD2eqj7-pvcfMHxu-3" style="edgeStyle=orthogonalEdgeStyle;rounded=0;orthogonalLoop=1;jettySize=auto;html=1;exitX=0.5;exitY=1;exitDx=0;exitDy=0;entryX=0.5;entryY=0;entryDx=0;entryDy=0;fontSize=9;endArrow=none;endFill=0;" parent="1" source="STW5Z5jAcxsszFFZeDyo-1" target="SlYRqpWBmHZHuvhh74nE-40" edge="1">
          <mxGeometry relative="1" as="geometry" />
        </mxCell>
        <mxCell id="STW5Z5jAcxsszFFZeDyo-1" value="Создать матрицу L и заполнить её минус единицами" style="rounded=0;whiteSpace=wrap;html=1;fontSize=9;" parent="1" vertex="1">
          <mxGeometry x="385" y="100" width="120" height="50" as="geometry" />
        </mxCell>
        <mxCell id="h1pXGD2eqj7-pvcfMHxu-1" style="edgeStyle=orthogonalEdgeStyle;rounded=0;orthogonalLoop=1;jettySize=auto;html=1;exitX=0.5;exitY=1;exitDx=0;exitDy=0;exitPerimeter=0;entryX=0.5;entryY=0;entryDx=0;entryDy=0;fontSize=9;endArrow=none;endFill=0;" parent="1" source="IS1TSV4aFmgYKtE3ZTNd-1" target="SlYRqpWBmHZHuvhh74nE-13" edge="1">
          <mxGeometry relative="1" as="geometry" />
        </mxCell>
        <mxCell id="IS1TSV4aFmgYKtE3ZTNd-1" value="Начало" style="strokeWidth=1;html=1;shape=mxgraph.flowchart.terminator;whiteSpace=wrap;fontSize=9;" parent="1" vertex="1">
          <mxGeometry x="395" y="-20" width="100" height="50" as="geometry" />
        </mxCell>
        <mxCell id="57JrRMyZgXDPEKOlpHH4-5" value="" style="edgeStyle=orthogonalEdgeStyle;rounded=0;orthogonalLoop=1;jettySize=auto;html=1;" edge="1" parent="1" source="0f7aI_639BJnZHgS0nen-3" target="57JrRMyZgXDPEKOlpHH4-4">
          <mxGeometry relative="1" as="geometry" />
        </mxCell>
        <mxCell id="0f7aI_639BJnZHgS0nen-3" value="L[n][m] = min(DL(A[:-1], B) + 1,&lt;br&gt;&lt;span style=&quot;white-space: pre;&quot;&gt;&#x9;&amp;nbsp;&lt;/span&gt;&amp;nbsp; &amp;nbsp; &amp;nbsp; &amp;nbsp; &amp;nbsp; &amp;nbsp; &amp;nbsp;DL(A, B[:-1]) + 1,&lt;br&gt;DL(A[:-1], B[:-1]) + (A[-1] != B[-1]))" style="whiteSpace=wrap;html=1;fontSize=9;" vertex="1" parent="1">
          <mxGeometry x="40" y="340" width="180" height="80" as="geometry" />
        </mxCell>
        <mxCell id="57JrRMyZgXDPEKOlpHH4-7" value="" style="edgeStyle=orthogonalEdgeStyle;rounded=0;orthogonalLoop=1;jettySize=auto;html=1;" edge="1" parent="1" source="57JrRMyZgXDPEKOlpHH4-4" target="57JrRMyZgXDPEKOlpHH4-6">
          <mxGeometry relative="1" as="geometry" />
        </mxCell>
        <mxCell id="57JrRMyZgXDPEKOlpHH4-4" value="n &amp;gt; 1 и m &amp;gt; 1&lt;br&gt;и A[n - 1] == B[n - 2]&lt;br&gt;и A[n - 2] == B[m - 1]" style="rhombus;whiteSpace=wrap;html=1;fontSize=9;" vertex="1" parent="1">
          <mxGeometry x="55" y="450" width="150" height="80" as="geometry" />
        </mxCell>
        <mxCell id="57JrRMyZgXDPEKOlpHH4-6" value="L[n][m] = min(L[n][m],&amp;nbsp;&lt;br&gt;DL(A[:-2], B[:-2])" style="whiteSpace=wrap;html=1;fontSize=9;" vertex="1" parent="1">
          <mxGeometry x="210" y="560" width="120" height="50" as="geometry" />
        </mxCell>
        <mxCell id="57JrRMyZgXDPEKOlpHH4-19" style="edgeStyle=orthogonalEdgeStyle;rounded=0;orthogonalLoop=1;jettySize=auto;html=1;exitX=0.5;exitY=1;exitDx=0;exitDy=0;entryX=0.5;entryY=0;entryDx=0;entryDy=0;" edge="1" parent="1" source="57JrRMyZgXDPEKOlpHH4-13" target="rgwxBBSbBvLUQFTYEhjc-2">
          <mxGeometry relative="1" as="geometry">
            <Array as="points">
              <mxPoint x="400" y="820" />
              <mxPoint x="445" y="820" />
            </Array>
          </mxGeometry>
        </mxCell>
        <mxCell id="57JrRMyZgXDPEKOlpHH4-13" value="&lt;font style=&quot;font-size: 9px;&quot;&gt;result = L[n][m]&lt;/font&gt;" style="rounded=0;whiteSpace=wrap;html=1;" vertex="1" parent="1">
          <mxGeometry x="340" y="700" width="120" height="50" as="geometry" />
        </mxCell>
        <mxCell id="57JrRMyZgXDPEKOlpHH4-15" value="" style="endArrow=classic;html=1;rounded=0;exitX=0;exitY=0.5;exitDx=0;exitDy=0;entryX=0.5;entryY=0;entryDx=0;entryDy=0;" edge="1" parent="1" source="57JrRMyZgXDPEKOlpHH4-4" target="57JrRMyZgXDPEKOlpHH4-13">
          <mxGeometry width="50" height="50" relative="1" as="geometry">
            <mxPoint x="50" y="660" as="sourcePoint" />
            <mxPoint x="100" y="610" as="targetPoint" />
            <Array as="points">
              <mxPoint x="55" y="650" />
              <mxPoint x="200" y="650" />
              <mxPoint x="200" y="680" />
              <mxPoint x="400" y="680" />
            </Array>
          </mxGeometry>
        </mxCell>
        <mxCell id="57JrRMyZgXDPEKOlpHH4-16" value="" style="endArrow=classic;html=1;rounded=0;exitX=0.5;exitY=1;exitDx=0;exitDy=0;entryX=0.5;entryY=0;entryDx=0;entryDy=0;" edge="1" parent="1" source="57JrRMyZgXDPEKOlpHH4-6" target="57JrRMyZgXDPEKOlpHH4-13">
          <mxGeometry width="50" height="50" relative="1" as="geometry">
            <mxPoint x="270" y="530" as="sourcePoint" />
            <mxPoint x="320" y="480" as="targetPoint" />
            <Array as="points">
              <mxPoint x="270" y="650" />
              <mxPoint x="200" y="650" />
              <mxPoint x="200" y="680" />
              <mxPoint x="400" y="680" />
            </Array>
          </mxGeometry>
        </mxCell>
      </root>
    </mxGraphModel>
  </diagram>
</mxfile>
